# xmcd
#
# Track frame offsets:
#	150
#	17193
#	35649
#	53045
#	66052
#	83111
#	97896
#	110489
#	127401
#	146316
#	163189
#	180881
#	197257
#	208218
#	225418
#	239862
#	256434
#	272405
#	286902
#
# Disc length: 4039 seconds
#
# Revision: 0
# Processed by: cddbd v1.5.2PL0 Copyright (c) Steve Scherf et al.
# Submitted via: EasyCDDAExtractor 11.5.0.1
#
DISCID=0d0fc513
DTITLE=Various Artist - NCT 039
DYEAR=2002
DGENRE=Country
TTITLE0=The Dixie Chicks - Long Time Gone
TTITLE1=Alan Jackson - Work In Progress
TTITLE2=Keith Urban - Somebody Like You
TTITLE3=Garth Brooks - Thicker Than Blood
TTITLE4=Willie Nelson - Maria (Shut Up And Kiss Me)
TTITLE5=Pinmonkey - Barb Wire And Roses
TTITLE6=Emerson Drive - Fall Into Me
TTITLE7=Tommy Shane Steiner - Tell Me Where It Hurts
TTITLE8=Trisha Yearwood - I Don't Paint Myself Into Corners
TTITLE9=Neal McCoy - What If
TTITLE10=Chad Brock - A Man's Gotta Do
TTITLE11=Alabama - I'm In The Mood
TTITLE12=Dwight Yoakam - Sitting Pretty
TTITLE13=Ty Herndon - A Few Short Years
TTITLE14=Carolyn Dawn Johnson - One Day Closer To You
TTITLE15=Dusty Drake - And Then
TTITLE16=Rascal Flatts - These Days
TTITLE17=Eric Heatherly - The Last Man Committed
TTITLE18=J. Michael Harter - Hard Call To Make
EXTD=
EXTT0=
EXTT1=
EXTT2=
EXTT3=
EXTT4=
EXTT5=
EXTT6=
EXTT7=
EXTT8=
EXTT9=
EXTT10=
EXTT11=
EXTT12=
EXTT13=
EXTT14=
EXTT15=
EXTT16=
EXTT17=
EXTT18=
PLAYORDER=
